<?xml version="1.0" encoding="UTF-8"?>
<svg xmlns="http://www.w3.org/2000/svg" width="1024" height="1024" viewBox="0 0 1254 1254" role="img" aria-label="Minimal vector UI icon of an orbital space station">
  <title>Orbital station UI icon</title>
  <desc>Minimal monochrome vector icon based on a segmented orbital station with ring, core module and vertical support.</desc>
  <path d="M 730 760 L 728 841 L 719 850 L 719 913 L 728 925 L 728 1050 L 733 1057 L 737 995 L 745 997 L 745 1055 L 753 1054 L 756 870 L 761 873 L 761 1000 L 770 1002 L 784 989 L 784 969 L 779 968 L 780 847 L 775 844 L 770 849 L 770 858 L 758 855 L 761 768 Z
    M 439 352 L 387 374 L 334 414 L 330 412 L 334 404 L 369 373 L 366 368 L 333 354 L 325 355 L 265 395 L 260 413 L 327 416 L 318 439 L 316 460 L 328 485 L 328 437 L 335 434 L 336 480 L 368 451 L 371 398 L 376 398 L 376 432 L 439 402 Z
    M 655 324 L 655 365 L 742 380 L 745 382 L 745 427 L 809 439 L 812 437 L 812 350 L 810 348 Z
    M 987 472 L 968 493 L 938 515 L 934 528 L 998 546 L 998 629 L 1034 596 L 1036 604 L 1047 596 L 1048 563 L 1062 549 L 1062 492 L 1032 525 L 1005 546 L 1009 535 L 1045 501 L 1056 485 Z
    M 854 220 L 849 215 L 832 213 L 796 248 L 730 238 L 731 225 L 795 236 L 820 214 L 787 206 L 774 210 L 771 182 L 768 210 L 749 212 L 755 203 L 740 200 L 689 245 L 675 267 L 796 287 L 799 271 L 692 251 L 703 248 L 805 265 Z
    M 601 327 L 535 330 L 450 348 L 448 399 L 508 386 L 510 379 L 462 389 L 458 388 L 458 382 L 515 369 L 518 371 L 519 384 L 599 377 Z
    M 844 606 L 840 605 L 800 614 L 757 620 L 684 625 L 683 678 L 720 677 L 772 671 L 784 648 L 844 636 Z
    M 987 556 L 921 583 L 854 602 L 852 604 L 852 654 L 890 645 L 892 642 L 938 627 L 986 605 Z
    M 263 420 L 255 439 L 254 473 L 263 494 L 281 519 L 294 532 L 297 529 L 319 543 L 362 529 L 362 526 L 335 505 L 330 505 L 317 487 L 276 495 L 269 494 L 270 488 L 312 480 L 307 452 L 315 422 Z
    M 664 273 L 655 311 L 657 314 L 756 329 L 755 311 L 758 309 L 768 312 L 768 321 L 764 323 L 764 331 L 812 338 L 799 295 L 701 280 L 700 311 L 694 313 L 691 310 L 691 278 L 675 274 L 670 270 Z
    M 839 598 L 811 576 L 759 585 L 698 589 L 672 596 L 672 600 L 679 616 L 685 618 L 761 612 L 809 605 Z
    M 863 353 L 865 356 L 888 363 L 927 382 L 949 396 L 965 409 L 1019 401 L 1019 399 L 980 373 L 926 349 L 916 350 L 879 339 Z
    M 981 549 L 939 535 L 934 535 L 895 552 L 859 564 L 823 573 L 823 575 L 851 596 L 927 574 L 959 561 Z
    M 874 233 L 866 232 L 831 263 L 836 275 L 836 281 L 833 284 L 830 283 L 825 270 L 814 277 L 811 289 L 819 315 L 821 333 L 826 332 L 892 273 L 890 265 Z
    M 859 362 L 858 397 L 860 399 L 901 413 L 903 415 L 903 424 L 905 428 L 932 442 L 953 457 L 954 429 L 951 426 L 950 421 L 954 420 L 955 413 L 921 389 L 885 371 Z
    M 974 417 L 974 419 L 986 433 L 992 444 L 997 460 L 996 464 L 997 466 L 1037 473 L 1047 476 L 1059 477 L 1061 471 L 1061 459 L 1057 447 L 1046 427 L 1030 409 Z
    M 843 645 L 789 655 L 783 668 L 790 668 L 791 673 L 776 681 L 769 717 L 768 839 L 788 822 L 788 700 L 797 669 L 803 665 L 842 658 Z
    M 770 457 L 769 458 L 769 519 L 768 520 L 769 546 L 808 552 L 808 464 Z
    M 896 283 L 894 283 L 826 344 L 826 426 L 847 408 L 848 352 L 877 327 L 896 332 Z
    M 768 681 L 732 686 L 694 688 L 704 703 L 725 710 L 728 713 L 728 751 L 757 758 L 761 757 L 761 714 L 764 705 Z
    M 655 390 L 655 426 L 657 428 L 715 437 L 721 439 L 728 439 L 728 402 L 727 401 L 674 393 L 657 389 Z
    M 253 479 L 253 518 L 261 536 L 272 550 L 284 561 L 285 579 L 297 589 L 317 601 L 317 550 L 303 540 L 297 542 L 275 521 L 269 513 L 268 516 L 270 524 L 268 527 L 265 524 L 256 504 Z
    M 367 535 L 363 535 L 357 538 L 343 542 L 340 544 L 329 547 L 325 550 L 325 602 L 365 588 L 367 586 Z
    M 612 319 L 610 323 L 610 378 L 612 380 L 640 380 L 642 378 L 642 322 L 640 319 Z
    M 434 344 L 411 327 L 400 327 L 361 340 L 343 348 L 342 350 L 372 360 L 375 363 L 377 368 L 380 369 L 402 357 L 424 348 L 432 346 Z
    M 518 323 L 506 307 L 498 307 L 497 308 L 484 309 L 448 316 L 424 322 L 421 325 L 445 341 L 448 341 L 455 338 L 474 333 L 506 327 L 511 327 L 512 326 L 517 326 Z
    M 742 438 L 739 441 L 739 443 L 744 445 L 744 537 L 760 545 L 761 544 L 761 456 L 755 454 L 753 451 L 755 447 L 761 447 L 761 443 L 760 441 Z
    M 838 455 L 834 457 L 817 473 L 817 541 L 816 542 L 817 549 L 822 546 L 838 531 L 838 513 L 839 512 L 839 481 L 838 480 L 839 463 L 838 462 Z
    M 601 316 L 601 302 L 599 300 L 543 302 L 542 303 L 523 304 L 517 306 L 518 310 L 528 323 L 547 322 L 557 320 L 599 318 Z
    M 987 614 L 984 614 L 973 620 L 938 635 L 900 648 L 899 650 L 901 653 L 901 658 L 904 659 L 932 650 L 957 640 L 987 625 Z
    M 791 829 L 789 829 L 782 837 L 787 843 L 787 960 L 795 952 L 795 833 Z
    M 585 335 L 584 340 L 529 345 L 494 351 L 466 358 L 462 357 L 463 351 L 503 342 L 526 338 L 583 333 Z
    M 873 413 L 863 410 L 859 410 L 816 449 L 816 462 L 819 463 L 836 446 L 839 444 L 842 444 L 873 415 Z
    M 717 754 L 714 754 L 714 832 L 706 841 L 706 894 L 710 899 L 711 846 L 720 838 L 721 760 Z
    M 962 420 L 962 467 L 970 475 L 982 462 L 985 462 L 985 455 L 977 437 L 969 426 Z
    M 706 906 L 706 964 L 713 974 L 715 979 L 719 982 L 719 933 L 720 932 L 720 925 L 708 907 Z
    M 655 376 L 655 381 L 662 383 L 668 383 L 674 385 L 679 385 L 685 387 L 702 389 L 726 394 L 730 394 L 733 389 L 725 387 Z
    M 610 308 L 611 313 L 641 313 L 643 309 L 644 301 L 612 301 Z
    M 904 391 L 906 390 L 916 395 L 941 411 L 946 416 L 946 420 L 944 422 L 924 408 L 904 397 Z
    M 772 1008 L 769 1008 L 765 1010 L 761 1009 L 761 1042 L 772 1031 Z
    M 670 611 L 670 661 L 675 670 L 676 670 L 676 622 L 671 611 Z
    M 769 443 L 769 448 L 770 449 L 796 453 L 802 455 L 808 455 L 808 449 L 792 447 L 775 443 Z
    M 710 712 L 714 719 L 714 743 L 717 746 L 720 747 L 720 716 L 715 712 Z
    M 715 989 L 715 1022 L 720 1028 L 720 1022 L 721 1021 L 720 1016 L 720 993 Z
    M 841 294 L 844 296 L 846 301 L 846 304 L 842 308 L 839 306 L 837 301 L 837 298 Z
    M 720 303 L 724 303 L 726 305 L 726 314 L 724 316 L 720 315 L 718 313 Z
    M 780 702 L 782 706 L 782 711 L 780 714 L 776 716 L 774 714 L 774 709 Z
    M 1025 574 L 1026 575 L 1025 580 L 1017 586 L 1015 582 Z
    M 291 546 L 293 544 L 298 546 L 301 549 L 302 553 L 300 555 Z" fill="#F2F2F2" fill-rule="evenodd"/>
</svg>
